<svg width="62" height="62" fill="none" xmlns="http://www.w3.org/2000/svg"><circle cx="31" cy="31" r="30" stroke="#fff" stroke-opacity=".5"/><circle cx="31" cy="31" fill="#fff" r="20"/><path d="M30.336 35.25c.156.195.39.273.664.273a.915.915 0 00.664-.273l5.313-5.313a.943.943 0 00.273-.664c0-.234-.117-.468-.273-.664l-.899-.859c-.195-.156-.43-.273-.664-.273a.942.942 0 00-.664.273L31 31.5l-3.75-3.75c-.195-.156-.43-.273-.664-.273a.942.942 0 00-.664.273l-.899.86a.915.915 0 00-.273.663c0 .274.078.508.273.665l5.313 5.312z" fill="#333"/></svg>