<svg width="62" height="62" viewBox="0 0 62 62" fill="none" xmlns="http://www.w3.org/2000/svg">
<circle cx="31" cy="31" r="30" stroke="white" stroke-opacity="0.5"/>
<ellipse cx="31" cy="31" rx="20" ry="20" fill="white"/>
<path d="M30.3359 35.25C30.4922 35.4453 30.7266 35.5234 31 35.5234C31.2344 35.5234 31.4688 35.4453 31.6641 35.25L36.9766 29.9375C37.1328 29.7812 37.25 29.5469 37.25 29.2734C37.25 29.0391 37.1328 28.8047 36.9766 28.6094L36.0781 27.75C35.8828 27.5938 35.6484 27.4766 35.4141 27.4766C35.1406 27.4766 34.9062 27.5938 34.75 27.75L31 31.5L27.25 27.75C27.0547 27.5938 26.8203 27.4766 26.5859 27.4766C26.3125 27.4766 26.0781 27.5938 25.9219 27.75L25.0234 28.6094C24.8281 28.8047 24.75 29.0391 24.75 29.2734C24.75 29.5469 24.8281 29.7812 25.0234 29.9375L30.3359 35.25Z" fill="#333333"/>
</svg>
